<svg width="30" height="32" viewBox="0 0 30 32" fill="none" xmlns="http://www.w3.org/2000/svg">
<path d="M8.31763 16.3965C8.31763 15.5348 7.71928 15.0205 6.66336 15.0205C6.23263 15.0205 5.94081 15.062 5.78778 15.1037V17.8707C5.9687 17.9118 6.19109 17.9258 6.4961 17.9258C7.62267 17.9258 8.31763 17.356 8.31763 16.3965Z" fill="#FF4F12"/>
<path d="M14.8533 15.0483C14.3801 15.0483 14.0749 15.09 13.8936 15.1317V21.2623C14.0746 21.3046 14.3666 21.3046 14.6308 21.3046C16.549 21.3181 17.8002 20.262 17.8002 18.0237C17.8143 16.0767 16.674 15.0483 14.8533 15.0483Z" fill="#FF4F12"/>
<path d="M27.3762 11.4463H26.6078V7.73872C26.6078 7.7156 26.6041 7.6923 26.601 7.66889C26.5998 7.52167 26.553 7.37707 26.4522 7.2625L20.2824 0.214611C20.2806 0.21281 20.2788 0.212171 20.2775 0.210196C20.2407 0.169121 20.1979 0.13496 20.1525 0.105388C20.1391 0.0963833 20.1256 0.0888306 20.1115 0.0810456C20.0722 0.0596077 20.0306 0.04183 19.9877 0.0289905C19.9761 0.0257371 19.9656 0.0209731 19.954 0.017952C19.9074 0.00691357 19.859 0 19.81 0H4.64703C3.95463 0 3.39213 0.563136 3.39213 1.25496V11.446H2.62391C1.63341 11.446 0.830276 12.2487 0.830276 13.2396V22.5668C0.830276 23.557 1.63341 24.3603 2.62391 24.3603H3.39219V30.745C3.39219 31.4368 3.95469 32 4.64709 32H25.3529C26.0447 32 26.6078 31.4369 26.6078 30.745V24.3603H27.3762C28.3664 24.3603 29.1697 23.557 29.1697 22.5668V13.2399C29.1697 12.2491 28.3664 11.4463 27.3762 11.4463ZM4.64703 1.25519H19.1825V7.67569C19.1825 8.02235 19.4638 8.30314 19.81 8.30314H25.3529V11.4467H4.64703V1.25519ZM20.052 17.9534C20.052 19.7472 19.3988 20.984 18.4939 21.749C17.5079 22.5692 16.0061 22.9583 14.1717 22.9583C13.0736 22.9583 12.2953 22.8887 11.7664 22.8195V13.616C12.5448 13.4911 13.5603 13.4216 14.6308 13.4216C16.4093 13.4216 17.5634 13.7416 18.4675 14.4223C19.4402 15.1454 20.052 16.299 20.052 17.9534ZM3.68843 22.8612V13.616C4.3415 13.5053 5.25949 13.4216 6.55239 13.4216C7.85905 13.4216 8.7907 13.6718 9.41606 14.1726C10.014 14.645 10.4162 15.4237 10.4162 16.3413C10.4162 17.2592 10.1112 18.0376 9.55468 18.5655C8.83183 19.2469 7.76151 19.553 6.50998 19.553C6.23239 19.553 5.98129 19.5388 5.78754 19.511V22.8614H3.68843V22.8612ZM25.3529 30.4053H4.64703V24.3603H25.3529V30.4053H25.3529ZM27.1712 15.2288H23.5698V17.3698H26.9344V19.0938H23.5698V22.8612H21.4439V13.4911H27.1712V15.2288Z" fill="#FF4F12"/>
</svg>
